<svg width="313" height="48" viewBox="0 0 313 48" fill="none" xmlns="http://www.w3.org/2000/svg">
<path d="M33.308 32.218H15.061C14.7821 31.2981 14.6427 30.4531 14.6427 29.6829C14.6427 28.6133 14.8357 27.565 15.2219 26.5382H21.3364C20.9074 24.1635 19.5664 22.9762 17.3137 22.9762C15.8119 22.9762 14.589 23.618 13.645 24.9016C12.701 26.1638 12.229 27.7896 12.229 29.7792C12.229 31.8543 12.6796 33.5337 13.5807 34.8173C14.5032 36.1009 15.7046 36.7426 17.185 36.7426C18.3865 36.7426 19.545 36.1436 20.6606 34.9456L27.5153 43.1605C24.3186 45.6635 20.7679 46.915 16.8632 46.915C12.1003 46.915 8.09905 45.3212 4.85943 42.1337C1.61981 38.9461 0 34.9991 0 30.2926C0 25.6076 1.63054 21.6499 4.89161 18.4195C8.17414 15.1892 12.1969 13.574 16.9597 13.574C21.6154 13.574 25.5201 15.1571 28.6739 18.3232C31.8491 21.468 33.4367 25.3508 33.4367 29.9717C33.4367 30.4424 33.3938 31.1911 33.308 32.218H33.308Z" fill="#8BC14A"/>
<path d="M38.3284 46.2732V17.8418C38.3284 12.8572 39.8194 8.86744 42.8016 5.87242C45.8052 2.87739 49.7958 1.37988 54.7732 1.37988C59.7292 1.37988 63.5159 2.83461 66.1333 5.74406C68.7722 8.65351 70.0917 12.8359 70.0917 18.2911V46.2732H57.0259V18.2911C57.0259 15.617 56.0712 14.2799 54.1617 14.2799C52.3167 14.2799 51.3941 15.617 51.3941 18.2911V46.2732H38.3284Z" fill="#219653"/>
<path d="M95.0324 34.2718V46.6904C94.0455 46.8616 93.1445 46.9471 92.3292 46.9471C87.5019 46.9471 83.4792 45.3641 80.2611 42.1979C77.0429 39.0317 75.4338 35.0633 75.4338 30.2927C75.4338 25.6504 77.0536 21.7141 80.2932 18.4837C83.5543 15.2534 87.5127 13.6382 92.1683 13.6382C97.3602 13.6382 101.447 15.1571 104.429 18.1949C107.433 21.2113 108.935 25.3402 108.935 30.5815V46.2733H96.899V31.4479C96.899 29.7578 96.4806 28.4101 95.6439 27.4046C94.8286 26.3991 93.7237 25.8964 92.3292 25.8964C91.0634 25.8964 89.9692 26.3563 89.0466 27.2762C88.1241 28.1961 87.6628 29.2872 87.6628 30.5494C87.6628 31.8758 88.0812 32.9668 88.9179 33.8225C89.7546 34.6782 90.8166 35.1061 92.1039 35.1061C93.1552 35.1061 94.1314 34.828 95.0324 34.2718Z" fill="#219653"/>
<path d="M126.667 2.47095V14.7292H132.073V27.4045H126.667C126.667 29.9503 127.064 31.7045 127.858 32.6672C128.673 33.6299 130.153 34.1112 132.299 34.1112V46.7225C131.677 46.7438 131.215 46.7545 130.915 46.7545C128.19 46.7545 125.616 46.1234 123.191 44.8612C120.788 43.5991 118.858 41.8876 117.399 39.7269C115.554 36.9672 114.631 33.309 114.631 28.7523V2.47095H126.667Z" fill="#219653"/>
<path d="M137.963 14.729H149.999V32.7954C149.999 34.6138 150.76 35.523 152.284 35.523C153.785 35.523 154.536 34.6138 154.536 32.7954V14.729H166.572V32.5708C166.572 36.721 165.189 40.2295 162.421 43.0962C159.653 45.9414 156.263 47.3641 152.251 47.3641C147.682 47.3641 144.002 45.7061 141.213 42.3902C139.046 39.8016 137.963 36.2076 137.963 31.6081V14.729Z" fill="#219653"/>
<path d="M191.223 13.9589V26.7948C190.387 26.3241 189.625 26.0888 188.939 26.0888C186.75 26.0888 185.656 27.7575 185.656 31.0948V46.2731H173.62V28.7843C173.62 24.1634 174.886 20.4838 177.418 17.7455C179.949 14.9858 183.328 13.606 187.555 13.606C188.499 13.606 189.722 13.7236 191.223 13.9589Z" fill="#219653"/>
<path d="M212.56 34.2718V46.6904C211.573 46.8616 210.672 46.9471 209.857 46.9471C205.029 46.9471 201.007 45.3641 197.789 42.1979C194.57 39.0317 192.961 35.0633 192.961 30.2927C192.961 25.6504 194.581 21.7141 197.821 18.4837C201.082 15.2534 205.04 13.6382 209.696 13.6382C214.888 13.6382 218.975 15.1571 221.957 18.1949C224.961 21.2113 226.462 25.3402 226.462 30.5815V46.2733H214.427V31.4479C214.427 29.7578 214.008 28.4101 213.171 27.4046C212.356 26.3991 211.251 25.8964 209.857 25.8964C208.591 25.8964 207.497 26.3563 206.574 27.2762C205.652 28.1961 205.19 29.2872 205.19 30.5494C205.19 31.8758 205.609 32.9668 206.445 33.8225C207.282 34.6782 208.344 35.1061 209.631 35.1061C210.683 35.1061 211.659 34.828 212.56 34.2718Z" fill="#219653"/>
<path d="M245.514 2.47095V46.2732H233.478V2.47095H245.514Z" fill="#219653"/>
<path d="M264.565 14.2799V46.2731H252.529V14.2799H264.565ZM258.58 0C260.21 0 261.615 0.57761 262.795 1.73283C263.997 2.86666 264.598 4.21443 264.598 5.77612C264.598 7.44477 264.029 8.81393 262.892 9.88358C261.776 10.9532 260.339 11.4881 258.58 11.4881C256.82 11.4881 255.372 10.9532 254.235 9.88358C253.119 8.81393 252.562 7.44477 252.562 5.77612C252.562 4.21443 253.152 2.86666 254.332 1.73283C255.533 0.57761 256.949 0 258.58 0Z" fill="#219653"/>
<path d="M291.823 14.729V27.3723C290.128 27.3723 288.959 27.6932 288.316 28.335C287.693 28.9554 287.297 30.1962 287.125 32.0574C286.567 38.24 284.164 42.6041 279.916 45.1499C277.663 46.4763 274.467 47.1394 270.326 47.1394H268.653V34.432H269.2C271.131 34.432 272.504 34.0362 273.319 33.2447C274.156 32.4317 274.638 31.0198 274.767 29.0089C274.939 25.7357 275.239 23.436 275.668 22.1096C276.119 20.7832 277.02 19.4676 278.371 18.1626C280.731 15.8735 284.003 14.729 288.187 14.729H291.823Z" fill="#219653"/>
<path d="M306.498 2.47095V14.7292H311.905V27.4045H306.498C306.498 29.9503 306.895 31.7045 307.689 32.6672C308.504 33.6299 309.985 34.1112 312.13 34.1112V46.7225C311.508 46.7438 311.046 46.7545 310.746 46.7545C308.021 46.7545 305.447 46.1234 303.023 44.8612C300.62 43.5991 298.689 41.8876 297.23 39.7269C295.385 36.9672 294.462 33.309 294.462 28.7523V2.47095H306.498Z" fill="#219653"/>
</svg>
