<svg width="770" height="117" viewBox="0 0 770 117" fill="none" xmlns="http://www.w3.org/2000/svg">
<path d="M82.1683 79.4789H37.1544C36.4663 77.2096 36.1223 75.125 36.1223 73.2251C36.1223 70.5864 36.5986 68.0004 37.5513 65.4672H52.6353C51.5768 59.6092 48.2689 56.6802 42.7116 56.6802C39.0068 56.6802 35.99 58.2634 33.6612 61.4299C31.3324 64.5437 30.168 68.5545 30.168 73.4626C30.168 78.5818 31.2795 82.7246 33.5024 85.8911C35.7783 89.0576 38.7421 90.6409 42.394 90.6409C45.3579 90.6409 48.216 89.1631 50.9681 86.2077L67.8781 106.473C59.9921 112.648 51.2328 115.735 41.6002 115.735C29.8505 115.735 19.9797 111.804 11.9878 103.94C3.99594 96.0767 0 86.3397 0 74.7292C0 63.1715 4.0224 53.4082 12.0672 45.4391C20.165 37.4701 30.0887 33.4856 41.8383 33.4856C53.3234 33.4856 62.956 37.391 70.7361 45.2016C78.5693 52.9596 82.4858 62.5382 82.4858 73.9376C82.4858 75.0986 82.38 76.9457 82.1683 79.4789H82.1683Z" fill="#8BC14A"/>
<path d="M94.5531 114.152V44.0143C94.5531 31.7178 98.2315 21.8753 105.588 14.4868C112.998 7.09829 122.842 3.40405 135.121 3.40405C147.347 3.40405 156.689 6.99274 163.146 14.1701C169.656 21.3475 172.911 31.665 172.911 45.1226V114.152H140.678V45.1226C140.678 38.5258 138.323 35.2273 133.613 35.2273C129.061 35.2273 126.785 38.5258 126.785 45.1226V114.152H94.5531Z" fill="#01953E"/>
<path d="M234.438 84.5455V115.181C232.003 115.604 229.78 115.815 227.769 115.815C215.86 115.815 205.937 111.909 197.998 104.099C190.059 96.2879 186.089 86.4981 186.089 74.7293C186.089 63.2772 190.085 53.5666 198.077 45.5976C206.122 37.6286 215.887 33.644 227.372 33.644C240.18 33.644 250.263 37.3911 257.619 44.8851C265.029 52.3264 268.734 62.5119 268.734 75.4418V114.152H239.042V77.5792C239.042 73.41 238.01 70.0851 235.946 67.6047C233.935 65.1243 231.209 63.8841 227.769 63.8841C224.646 63.8841 221.947 65.0187 219.671 67.2881C217.395 69.5574 216.257 72.2489 216.257 75.3626C216.257 78.6347 217.289 81.3262 219.353 83.4372C221.418 85.5482 224.037 86.6037 227.213 86.6037C229.806 86.6037 232.215 85.9176 234.438 84.5455Z" fill="#01953E"/>
<path d="M312.477 6.09546V36.3355H325.815V67.6046H312.477C312.477 73.8849 313.456 78.2124 315.415 80.5873C317.426 82.9621 321.078 84.1496 326.371 84.1496V115.26C324.836 115.313 323.698 115.34 322.957 115.34C316.235 115.34 309.884 113.783 303.903 110.669C297.976 107.555 293.212 103.333 289.613 98.003C285.061 91.195 282.786 82.1705 282.786 70.9295V6.09546H312.477Z" fill="#01953E"/>
<path d="M340.343 36.3356H370.035V80.904C370.035 85.3898 371.914 87.6328 375.672 87.6328C379.376 87.6328 381.229 85.3898 381.229 80.904V36.3356H410.921V80.3498C410.921 90.5882 407.507 99.2433 400.679 106.315C393.852 113.334 385.49 116.844 375.592 116.844C364.319 116.844 355.242 112.754 348.362 104.574C343.016 98.1878 340.343 89.3216 340.343 77.975V36.3356Z" fill="#01953E"/>
<path d="M471.733 34.4356V66.1006C469.669 64.9395 467.79 64.359 466.096 64.359C460.698 64.359 457.999 68.4754 457.999 76.7083V114.152H428.307V71.0086C428.307 59.6093 431.43 50.532 437.675 43.7768C443.92 36.9688 452.256 33.5648 462.683 33.5648C465.011 33.5648 468.028 33.8551 471.733 34.4356Z" fill="#01953E"/>
<path d="M524.369 84.5455V115.181C521.934 115.604 519.711 115.815 517.7 115.815C505.791 115.815 495.868 111.909 487.929 104.099C479.99 96.2879 476.02 86.4981 476.02 74.7293C476.02 63.2772 480.016 53.5666 488.008 45.5976C496.053 37.6286 505.818 33.644 517.303 33.644C530.111 33.644 540.194 37.3911 547.55 44.8851C554.96 52.3264 558.665 62.5119 558.665 75.4418V114.152H528.973V77.5792C528.973 73.41 527.941 70.0851 525.877 67.6047C523.866 65.1243 521.14 63.8841 517.7 63.8841C514.577 63.8841 511.878 65.0187 509.602 67.2881C507.326 69.5574 506.188 72.2489 506.188 75.3626C506.188 78.6347 507.22 81.3262 509.285 83.4372C511.349 85.5482 513.968 86.6037 517.144 86.6037C519.737 86.6037 522.146 85.9176 524.369 84.5455Z" fill="#01953E"/>
<path d="M605.664 6.09546V114.152H575.972V6.09546H605.664Z" fill="#01953E"/>
<path d="M652.662 35.2273V114.152H622.97V35.2273H652.662ZM637.896 0C641.918 0 645.385 1.42492 648.296 4.27476C651.26 7.07183 652.741 10.3967 652.741 14.2492C652.741 18.3657 651.339 21.7433 648.534 24.382C645.782 27.0208 642.236 28.3401 637.896 28.3401C633.556 28.3401 629.983 27.0208 627.178 24.382C624.426 21.7433 623.05 18.3657 623.05 14.2492C623.05 10.3967 624.505 7.07183 627.416 4.27476C630.38 1.42492 633.873 0 637.896 0Z" fill="#01953E"/>
<path d="M719.905 36.3356V67.5255C715.724 67.5255 712.839 68.3171 711.252 69.9004C709.717 71.4309 708.738 74.4918 708.314 79.0833C706.938 94.3352 701.01 105.101 690.531 111.382C684.974 114.654 677.088 116.29 666.873 116.29H662.745V84.9413H664.094C668.858 84.9413 672.245 83.9649 674.256 82.0123C676.32 80.0068 677.511 76.5237 677.829 71.5628C678.252 63.4883 678.993 57.8149 680.052 54.5429C681.163 51.2709 683.386 48.0252 686.72 44.8059C692.542 39.159 700.613 36.3356 710.934 36.3356H719.905Z" fill="#01953E"/>
<path d="M756.107 6.09546V36.3355H769.444V67.6046H756.107C756.107 73.8849 757.086 78.2124 759.044 80.5873C761.055 82.9621 764.707 84.1496 770 84.1496V115.26C768.465 115.313 767.327 115.34 766.586 115.34C759.864 115.34 753.513 113.783 747.533 110.669C741.605 107.555 736.841 103.333 733.242 98.003C728.691 91.195 726.415 82.1705 726.415 70.9295V6.09546H756.107Z" fill="#01953E"/>
</svg>
