<svg width="26" height="39" viewBox="0 0 26 39" fill="none" xmlns="http://www.w3.org/2000/svg">
<path d="M13.1353 1C6.43302 1.00019 0.999888 6.43355 1 13.1358C1.00005 15.7974 3.49034 20.5005 3.49034 20.5005H3.4887L13.0996 37.1469L22.5212 20.8281C22.5212 20.8281 25.2709 15.9406 25.2711 13.1358C25.2712 6.43335 19.8377 0.999887 13.1352 1H13.1353Z" stroke="#E0E0E0"/>
<path d="M13.1355 19.8033C17.0616 19.8033 20.2444 16.6206 20.2444 12.6945C20.2444 8.76833 17.0616 5.58557 13.1355 5.58557C9.20936 5.58557 6.02661 8.76833 6.02661 12.6945C6.02661 16.6206 9.20936 19.8033 13.1355 19.8033Z" stroke="#E0E0E0"/>
<path d="M8.47189 14.0641C8.97114 13.1361 9.32937 12.4988 9.32937 12.4988L8.42164 11.9512H10.6405L11.5052 13.6468L10.7263 13.1358L10.0411 14.7228L9.21748 16.3236L10.0411 14.7228H12.4715V16.3372L9.21748 16.3236C8.70086 16.3215 8.09613 14.7626 8.47189 14.0641V14.0641Z" stroke="#E0E0E0" stroke-width="0.75"/>
<path d="M14.4026 8.32683C14.9567 9.22321 15.3295 9.85211 15.3295 9.85211L16.2576 9.33977L15.1482 11.2613L13.2474 11.1624L14.0793 10.7434L13.0476 9.35645L12.073 7.84278L13.0476 9.35645L11.8324 11.4612L10.4343 10.654L12.073 7.84278C12.3313 7.39536 13.9856 7.65219 14.4026 8.32683V8.32683Z" stroke="#E0E0E0" stroke-width="0.75"/>
<path d="M16.2923 16.269C15.239 16.3007 14.5079 16.3091 14.5079 16.3091L14.4876 17.369L13.3782 15.4474L14.4143 13.8507L14.3611 14.7807L16.0781 14.5808L17.8763 14.4936L16.0781 14.5808L14.8629 12.476L16.261 11.6688L17.8763 14.4936C18.1346 14.941 17.085 16.2452 16.2923 16.269H16.2923Z" stroke="#E0E0E0" stroke-width="0.75"/>
</svg>
