<svg width="17" height="13" viewBox="0 0 17 13" fill="none" xmlns="http://www.w3.org/2000/svg">
<path d="M1.39328 1.10319L15.5262 1.00279C15.7434 1.00125 15.9207 1.17606 15.9222 1.39325L15.9851 10.2466C15.9867 10.4638 15.8118 10.6412 15.5947 10.6427L1.46176 10.7431C1.24457 10.7446 1.06725 10.5698 1.06571 10.3526L1.00282 1.49924C1.00127 1.28205 1.17609 1.10473 1.39328 1.10319Z" stroke="#219653" stroke-width="0.4"/>
<path d="M1.9627 1.6184L14.9643 1.52604C15.157 1.52467 15.3143 1.6798 15.3157 1.87254L15.3715 9.72907C15.3729 9.92181 15.2178 10.0792 15.025 10.0805L2.02347 10.1729C1.83073 10.1743 1.67338 10.0191 1.67201 9.82639L1.6162 1.96985C1.61483 1.77712 1.76997 1.61977 1.9627 1.6184Z" stroke="#219653" stroke-width="0.4"/>
<path d="M7.2174 10.7027L9.83911 10.6841L9.84516 11.5361L7.22345 11.5548L7.2174 10.7027Z" stroke="#219653" stroke-width="0.4"/>
<path d="M5.19247 11.5691L11.8763 11.5216C12.0693 11.5203 12.2269 11.6757 12.2283 11.8687L12.2294 12.0217C12.2308 12.2147 12.0754 12.3723 11.8823 12.3737L5.19852 12.4212C5.00546 12.4226 4.84784 12.2672 4.84647 12.0741L4.84539 11.9212C4.84402 11.7281 4.99941 11.5705 5.19247 11.5691Z" stroke="#219653" stroke-width="0.4"/>
<path d="M11.1425 8.62965L8.63657 6.38393L8.49567 8.90505L8.18919 6.12636L6.56873 7.30892L7.65299 5.97652L4.69031 5.54125L7.28872 5.29627L5.83042 3.50153L8.0604 4.99293L9.25206 2.69067L8.63657 4.99293L12.6144 2.8392L9.04398 5.40035L11.0437 5.87056L9.04398 5.97652L11.1425 8.62965Z" stroke="#219653" stroke-width="0.4"/>
<path d="M5.83036 3.50155L3.38085 3.29696L1.61365 1.62097" stroke="#219653" stroke-width="0.4"/>
<path d="M11.0437 5.87055L13.6682 5.44739L15.3029 6.44274" stroke="#219653" stroke-width="0.4"/>
<path d="M4.69036 5.54126L4.85452 7.33159L2.85107 8.6065" stroke="#219653" stroke-width="0.4"/>
</svg>
