<svg width="14" height="13" viewBox="0 0 14 13" fill="none" xmlns="http://www.w3.org/2000/svg">
<path d="M5.64583 2.0824L4.23195 3.41019C4.19717 3.44287 4.1955 3.49746 4.22808 3.53234L6.45438 5.91648H7.451L8.39643 5.02844C8.43122 4.99576 8.43327 4.94117 8.4007 4.90628L5.7676 2.08628C5.73503 2.05139 5.68062 2.04972 5.64583 2.0824V2.0824Z" stroke="#219653" stroke-width="0.4"/>
<path d="M5.84517 2.54389L4.68335 3.63435C4.65476 3.66118 4.65348 3.70575 4.68026 3.7344L6.71926 5.91649H7.01902L8.07264 4.92763C8.10123 4.9008 8.1029 4.85623 8.07614 4.82758L5.94522 2.54738C5.91845 2.51873 5.87376 2.51705 5.84517 2.54389V2.54389Z" stroke="#219653" stroke-width="0.4"/>
<path d="M6.35583 5.15475L6.25819 4.3236L5.82651 4.67024L6.21768 4.19652L5.73039 4.05055L6.14356 4.06781L5.67078 3.41501L6.18632 3.89443L6.208 3.33826L6.37652 4.00254L6.96548 3.89701L6.48208 4.11692L7.55763 4.58654L6.49115 4.25833L6.78186 4.72517L6.3984 4.34394L6.35583 5.15475Z" stroke="#219653" stroke-width="0.4"/>
<path d="M6.2282 3.36765L5.83606 3.08476L5.89692 2.49548" stroke="#219653" stroke-width="0.4"/>
<path d="M6.76257 4.70813L7.33097 5.18331L7.44393 5.54384" stroke="#219653" stroke-width="0.4"/>
<path d="M5.67127 3.45435L5.41266 3.71351L4.84033 3.50524" stroke="#219653" stroke-width="0.4"/>
<path d="M5.18284 2.97691C5.22374 2.93925 5.22637 2.87557 5.18872 2.83467C5.15106 2.79376 5.08737 2.79113 5.04647 2.82879C5.00557 2.86645 5.00294 2.93013 5.0406 2.97103C5.07825 3.01193 5.14194 3.01456 5.18284 2.97691Z" stroke="#219653" stroke-width="0.4"/>
<path d="M10.7628 5.91736L10.438 5.91638H1.32481L1 5.926V12.0721C1 12.2428 1.1448 12.3969 1.32481 12.3969H10.438C10.618 12.3969 10.7628 12.2521 10.7628 12.0721V5.91736Z" stroke="#219653" stroke-width="0.4"/>
<path d="M11.9723 2.89544L11.056 2.97471C10.9551 2.98343 10.867 3.02642 10.806 3.08883C10.7451 3.15128 10.7112 3.23302 10.7187 3.31997L11.4803 12.1229C11.4878 12.2099 11.5353 12.2846 11.606 12.3357C11.6768 12.3867 11.771 12.4139 11.8719 12.4052L12.7882 12.3259C12.9899 12.3084 13.1401 12.1545 13.1251 11.9806L12.3634 3.17767C12.3483 3.00379 12.174 2.87796 11.9722 2.89542L11.9723 2.89544Z" stroke="#219653" stroke-width="0.4"/>
<path d="M3.64662 9.83897C3.89144 9.3839 4.06711 9.07136 4.06711 9.07136L3.62198 8.80286H4.71005L5.13408 9.63434L4.75215 9.38376L4.4161 10.1619L4.01224 10.947L4.4161 10.1619H5.60791V10.9536L4.01224 10.947C3.7589 10.9459 3.46236 10.1815 3.64662 9.83897V9.83897Z" stroke="#219653" stroke-width="0.4"/>
<path d="M6.55497 7.0255C6.82666 7.46506 7.00949 7.77346 7.00949 7.77346L7.46458 7.52222L6.92055 8.46451L5.98845 8.41599L6.39643 8.21053L5.89052 7.53041L5.41259 6.78814L5.89052 7.53041L5.29461 8.56254L4.60901 8.16671L5.41259 6.78814C5.53926 6.56873 6.35048 6.69467 6.55497 7.0255V7.0255Z" stroke="#219653" stroke-width="0.4"/>
<path d="M7.4815 10.9202C6.96498 10.9357 6.60649 10.9398 6.60649 10.9398L6.59652 11.4596L6.05249 10.5173L6.56056 9.7343L6.53451 10.1903L7.37647 10.0923L8.25826 10.0495L7.37647 10.0923L6.78056 9.06014L7.46617 8.66431L8.25826 10.0495C8.38493 10.2689 7.87025 10.9085 7.4815 10.9202H7.4815Z" stroke="#219653" stroke-width="0.4"/>
<path d="M4.66569 2.22453C4.73128 1.65533 4.58043 1.26138 3.71468 1.04372C2.89086 0.924866 1.64522 1.04912 1.05432 1.40705C1.07143 1.4006 1.08861 1.39426 1.10587 1.38805C1.12336 1.38175 1.14085 1.3755 1.15856 1.36941C1.17619 1.36341 1.19397 1.35749 1.21183 1.35173C1.22962 1.34588 1.24748 1.34011 1.26534 1.33449C1.28327 1.32893 1.30113 1.32348 1.31914 1.31816C1.33723 1.31283 1.35532 1.30761 1.3734 1.30253C1.39156 1.29735 1.40987 1.29245 1.42811 1.28761C1.44634 1.2828 1.46472 1.27813 1.48311 1.27359C1.50149 1.26901 1.5198 1.26454 1.53826 1.26022C1.55672 1.25594 1.57526 1.2518 1.59372 1.24775C1.61225 1.2437 1.63079 1.23977 1.64925 1.23593C1.66779 1.2321 1.68625 1.2285 1.70486 1.22496C1.72347 1.22143 1.74215 1.21798 1.76076 1.2147C1.77945 1.21139 1.79828 1.20832 1.81712 1.20534C1.8358 1.20241 1.85464 1.19949 1.8734 1.19683C1.89216 1.19405 1.911 1.19142 1.92976 1.18894C1.94852 1.18646 1.96736 1.18414 1.98612 1.18196C2.0048 1.17986 2.02363 1.17791 2.04239 1.17603C2.06116 1.17408 2.07999 1.17221 2.09875 1.17056C2.11766 1.16898 2.13657 1.16748 2.15549 1.16613C2.17425 1.16478 2.193 1.16365 2.21176 1.1626C2.23053 1.16155 2.24936 1.1605 2.26812 1.15968C2.28703 1.15885 2.30579 1.1581 2.32455 1.15757C2.34324 1.15707 2.36185 1.15675 2.38046 1.15652C2.39929 1.15626 2.41813 1.15613 2.43682 1.15614C2.4555 1.15614 2.47419 1.15628 2.4928 1.15655C2.51141 1.15682 2.52994 1.15721 2.54848 1.15783C2.56709 1.15838 2.58563 1.1591 2.60416 1.15986C2.62262 1.16076 2.64101 1.16181 2.65939 1.16293C2.67785 1.16398 2.69624 1.16533 2.71462 1.16668C2.73301 1.16803 2.75124 1.16953 2.76948 1.17119C2.78771 1.17284 2.80587 1.17464 2.82396 1.17651C2.84212 1.17854 2.86027 1.18057 2.87836 1.18289C2.89637 1.18499 2.91423 1.18732 2.93217 1.1898C2.93892 1.19077 2.94635 1.19182 2.95356 1.19287C2.97134 1.19542 2.98912 1.1982 3.00683 1.20103C3.02454 1.20388 3.04218 1.20688 3.05974 1.20995C3.07745 1.21302 3.09508 1.21632 3.11264 1.2197C3.13013 1.22308 3.14746 1.2266 3.1648 1.23022C3.18221 1.23382 3.19947 1.23765 3.21665 1.24154C3.23376 1.24544 3.2508 1.24942 3.26768 1.25361C3.28472 1.25789 3.30152 1.26221 3.31826 1.26668C3.33507 1.2711 3.35195 1.27567 3.36861 1.28034C3.38527 1.28507 3.40178 1.28983 3.41814 1.29477C3.43465 1.29972 3.45108 1.30479 3.46744 1.30998C3.48358 1.31524 3.49956 1.32061 3.51547 1.32611C3.5316 1.33159 3.54766 1.33716 3.56372 1.34287C3.57956 1.34857 3.59524 1.35439 3.61077 1.36033C3.62646 1.36626 3.64206 1.37239 3.65745 1.37859C3.67275 1.38467 3.68814 1.39098 3.70315 1.39735C3.71838 1.4038 3.73346 1.4104 3.7484 1.41711C3.7634 1.42386 3.77826 1.43066 3.79297 1.43762C3.80761 1.44452 3.82216 1.4515 3.8365 1.45862C3.85105 1.46582 3.86546 1.47305 3.87965 1.48043C3.89383 1.48779 3.90786 1.49532 3.92175 1.50295C3.93578 1.51048 3.94951 1.51821 3.96324 1.52601C3.97682 1.5338 3.99026 1.54173 4.00354 1.54976C4.01712 1.55782 4.03041 1.56602 4.04361 1.57431C4.05667 1.58255 4.0695 1.59088 4.08226 1.59931C4.09524 1.60782 4.108 1.61641 4.12053 1.62512C4.13314 1.63381 4.14552 1.64268 4.15775 1.65161C4.16998 1.66051 4.18207 1.66951 4.194 1.67861C4.20585 1.68768 4.21763 1.69685 4.22919 1.70611C4.2409 1.71542 4.25231 1.72484 4.26371 1.73434C4.27504 1.74383 4.2863 1.75341 4.29733 1.76309C4.30844 1.77274 4.31924 1.78248 4.32997 1.79233C4.34063 1.80222 4.35113 1.8122 4.36141 1.82227C4.37177 1.83226 4.38198 1.84234 4.39196 1.85251C4.40209 1.86274 4.41207 1.87307 4.42182 1.88349C4.4315 1.89388 4.44103 1.90435 4.45034 1.91491C4.45972 1.92547 4.46887 1.93611 4.47788 1.94683C4.48688 1.95755 4.49581 1.96836 4.50437 1.97925C4.51322 1.99015 4.52156 2.00112 4.52989 2.01217C4.53874 2.02317 4.54662 2.03421 4.5548 2.04536C4.56275 2.05658 4.57033 2.06788 4.57776 2.07926C4.58571 2.09058 4.59284 2.10196 4.60012 2.11342C4.60688 2.12492 4.61438 2.13648 4.62128 2.1481C4.62804 2.15969 4.63472 2.17134 4.64125 2.18305C4.64725 2.19479 4.65415 2.20658 4.66038 2.21845C4.66113 2.22055 4.66188 2.22273 4.66338 2.2249L4.66569 2.22453Z" stroke="#219653" stroke-width="0.4"/>
<path d="M4.66569 2.22453C4.73128 1.65533 4.58043 1.26138 3.71468 1.04372C2.89086 0.924866 1.64522 1.04912 1.05432 1.40705C1.07143 1.4006 1.08861 1.39426 1.10587 1.38805C1.12336 1.38175 1.14085 1.3755 1.15856 1.36941C1.17619 1.36341 1.19397 1.3575 1.21183 1.35173C1.22962 1.34588 1.24748 1.34011 1.26534 1.33448C1.28327 1.32892 1.30113 1.32347 1.31914 1.31815C1.33723 1.31282 1.35532 1.3076 1.3734 1.30253C1.39156 1.29735 1.40987 1.29245 1.42811 1.2876C1.44634 1.2828 1.46472 1.27812 1.48311 1.27357C1.50149 1.269 1.5198 1.26452 1.53826 1.2602C1.55672 1.25592 1.57526 1.25178 1.59372 1.24774C1.61225 1.24369 1.63079 1.23976 1.64925 1.23591C1.66779 1.23208 1.68625 1.22848 1.70486 1.22495C1.72347 1.22142 1.74215 1.21797 1.76076 1.21468C1.77945 1.21138 1.79828 1.2083 1.81712 1.20532C1.8358 1.2024 1.85464 1.19947 1.8734 1.19681C1.89216 1.19404 1.911 1.19141 1.92976 1.18893C1.94852 1.18645 1.96736 1.18412 1.98612 1.18195C2.0048 1.17985 2.02363 1.1779 2.04239 1.17602C2.06116 1.17407 2.07999 1.17219 2.09875 1.17054C2.11766 1.16897 2.13657 1.16747 2.15549 1.16611C2.17425 1.16476 2.193 1.16364 2.21176 1.16259C2.23052 1.16154 2.24936 1.16049 2.26812 1.15966C2.28703 1.15884 2.30579 1.15808 2.32455 1.15756C2.34324 1.15706 2.36185 1.15673 2.38046 1.15651C2.39929 1.15624 2.41813 1.15611 2.43682 1.15612C2.4555 1.15612 2.47419 1.15626 2.4928 1.15654C2.51141 1.1568 2.52994 1.15719 2.54848 1.15781C2.56709 1.15837 2.58563 1.15909 2.60416 1.15984C2.62262 1.16074 2.64101 1.16179 2.65939 1.16292C2.67785 1.16397 2.69624 1.16532 2.71462 1.16667C2.73301 1.16802 2.75124 1.16952 2.76948 1.17117C2.78771 1.17282 2.80587 1.17462 2.82396 1.1765C2.84212 1.17853 2.86027 1.18055 2.87836 1.18288C2.89637 1.18498 2.91423 1.1873 2.93217 1.18978C2.93892 1.19076 2.94635 1.19181 2.95356 1.19286C2.97134 1.19541 2.98912 1.19819 3.00683 1.20102C3.02454 1.20387 3.04218 1.20687 3.05974 1.20993C3.07745 1.21301 3.09508 1.21631 3.11264 1.21969C3.13013 1.22306 3.14746 1.22659 3.1648 1.23021C3.18221 1.23381 3.19947 1.23764 3.21665 1.24152C3.23376 1.24543 3.2508 1.24941 3.26768 1.2536C3.28472 1.25787 3.30152 1.2622 3.31826 1.26666C3.33507 1.27109 3.35195 1.27565 3.36861 1.28033C3.38527 1.28505 3.40178 1.28982 3.41814 1.29476C3.43465 1.29971 3.45108 1.30478 3.46744 1.30997C3.48358 1.31522 3.49956 1.32059 3.51547 1.32609C3.5316 1.33157 3.54766 1.33714 3.56372 1.34284C3.57956 1.34855 3.59524 1.35436 3.61077 1.36031C3.62646 1.36624 3.64206 1.37237 3.65744 1.37857C3.67275 1.38473 3.68814 1.39095 3.70315 1.39733C3.71838 1.40378 3.73346 1.41038 3.7484 1.41708C3.7634 1.42384 3.77826 1.43064 3.79297 1.43759C3.80761 1.4445 3.82216 1.45148 3.8365 1.4586C3.85105 1.4658 3.86546 1.47303 3.87965 1.48041C3.89383 1.48777 3.90786 1.4953 3.92174 1.50292C3.93578 1.51046 3.94951 1.51819 3.96324 1.52598C3.97682 1.53378 3.99026 1.54171 4.00354 1.54974C4.01712 1.5578 4.03041 1.566 4.04361 1.57429C4.05667 1.58253 4.0695 1.59086 4.08226 1.59929C4.09524 1.6078 4.108 1.61639 4.12053 1.6251C4.13314 1.63379 4.14552 1.64266 4.15775 1.65159C4.16998 1.66049 4.18207 1.66949 4.194 1.67859C4.20585 1.68765 4.21763 1.69682 4.22919 1.70608C4.2409 1.7154 4.25231 1.72482 4.26371 1.73432C4.27504 1.74381 4.2863 1.75339 4.29733 1.76306C4.30844 1.77271 4.31924 1.78246 4.32997 1.79231C4.34063 1.8022 4.35113 1.81218 4.36141 1.82225C4.37177 1.83224 4.38198 1.84232 4.39196 1.85248C4.40209 1.86272 4.41207 1.87305 4.42182 1.88347C4.4315 1.89385 4.44103 1.90433 4.45034 1.91489C4.45972 1.92545 4.46887 1.93609 4.47788 1.9468C4.48688 1.95753 4.49581 1.96834 4.50437 1.97923C4.51322 1.99013 4.52156 2.0011 4.52989 2.01215C4.53874 2.02314 4.54662 2.03419 4.5548 2.04533C4.56275 2.05657 4.57033 2.06786 4.57776 2.07924C4.58571 2.09055 4.59284 2.10194 4.60012 2.1134C4.60688 2.12489 4.61438 2.13646 4.62128 2.14808C4.62804 2.15967 4.63472 2.17131 4.64125 2.18303C4.64725 2.19477 4.65415 2.20656 4.66038 2.21843C4.66113 2.22053 4.66188 2.2227 4.66338 2.22488L4.66569 2.22453Z" stroke="#219653" stroke-width="0.4"/>
<path d="M10.7628 5.91736L10.438 5.91638H1.32481L1 5.926V12.0721C1 12.2428 1.1448 12.3969 1.32481 12.3969H10.438C10.618 12.3969 10.7628 12.2521 10.7628 12.0721V5.91736Z" stroke="#219653" stroke-width="0.4"/>
</svg>
