<svg width="9" height="12" viewBox="0 0 9 12" fill="none" xmlns="http://www.w3.org/2000/svg">
<path d="M4.49993 1C2.56693 1.00005 0.999968 2.56709 1 4.50008C1.00002 5.2677 1.71824 6.62412 1.71824 6.62412H1.71776L4.48964 11.4251L7.20692 6.7186C7.20692 6.7186 7.99996 5.30902 8 4.50008C8.00003 2.56703 6.43297 0.999967 4.49992 1H4.49993Z" stroke="#219653" stroke-width="0.4"/>
<path d="M4.49997 6.42304C5.6323 6.42304 6.55024 5.50511 6.55024 4.37278C6.55024 3.24045 5.6323 2.32251 4.49997 2.32251C3.36764 2.32251 2.44971 3.24045 2.44971 4.37278C2.44971 5.50511 3.36764 6.42304 4.49997 6.42304Z" stroke="#219653" stroke-width="0.4"/>
<path d="M3.15497 4.76783C3.29896 4.50018 3.40227 4.31637 3.40227 4.31637L3.14048 4.15845H3.78041L4.0298 4.64748L3.80518 4.5001L3.60753 4.95778L3.37 5.41949L3.60753 4.95778H4.30848V5.42339L3.37 5.41949C3.221 5.41888 3.0466 4.96927 3.15497 4.76783V4.76783Z" stroke="#219653" stroke-width="0.4"/>
<path d="M4.86544 3.11309C5.02524 3.37161 5.13276 3.55299 5.13276 3.55299L5.40042 3.40523L5.08046 3.95943L4.53225 3.93089L4.7722 3.81005L4.47465 3.41004L4.19356 2.97349L4.47465 3.41004L4.12418 4.01709L3.72095 3.78428L4.19356 2.97349C4.26806 2.84445 4.74518 2.91852 4.86544 3.11309V3.11309Z" stroke="#219653" stroke-width="0.4"/>
<path d="M5.4104 5.40366C5.10662 5.41278 4.89577 5.41522 4.89577 5.41522L4.88991 5.7209L4.56995 5.1667L4.86876 4.70621L4.85344 4.97443L5.34863 4.91675L5.86725 4.8916L5.34863 4.91675L4.99815 4.30971L5.40139 4.0769L5.86725 4.8916C5.94175 5.02064 5.63904 5.39679 5.4104 5.40366H5.4104Z" stroke="#219653" stroke-width="0.4"/>
</svg>
